<svg xmlns="http://www.w3.org/2000/svg" fill="none" viewBox="0 0 22 23"><path fill="#3D348B" d="M15.972 14.73H14.97l-.355-.342a8.23 8.23 0 0 0 1.875-6.761c-.595-3.52-3.534-6.331-7.082-6.762A8.246 8.246 0 0 0 .577 6.37a8.232 8.232 0 0 0-.379 3.701c.431 3.546 3.244 6.483 6.766 7.078a8.24 8.24 0 0 0 6.765-1.873l.343.354v1l5.384 5.382c.52.519 1.368.519 1.888 0 .52-.52.52-1.368 0-1.887l-5.372-5.394Zm-7.602 0A5.692 5.692 0 0 1 2.67 9.032 5.692 5.692 0 0 1 8.37 3.334a5.692 5.692 0 0 1 5.702 5.698A5.692 5.692 0 0 1 8.37 14.73Z"/></svg>